<svg width="145" height="34" viewBox="0 0 145 34" fill="none" xmlns="http://www.w3.org/2000/svg">
<path d="M1.8 28C1.53333 28 1.29333 27.9067 1.08 27.72C0.893333 27.5067 0.8 27.2667 0.8 27V1C0.8 0.706665 0.893333 0.466665 1.08 0.279999C1.29333 0.0933318 1.53333 -1.90735e-06 1.8 -1.90735e-06H20.48C20.7733 -1.90735e-06 21.0133 0.0933318 21.2 0.279999C21.3867 0.466665 21.48 0.706665 21.48 1V4.76C21.48 5.02667 21.3867 5.26667 21.2 5.48C21.0133 5.66666 20.7733 5.76 20.48 5.76H7.72V11.16H19.6C19.8933 11.16 20.1333 11.2667 20.32 11.48C20.5067 11.6667 20.6 11.9067 20.6 12.2V15.68C20.6 15.9467 20.5067 16.1867 20.32 16.4C20.1333 16.5867 19.8933 16.68 19.6 16.68H7.72V22.24H20.8C21.0933 22.24 21.3333 22.3333 21.52 22.52C21.7067 22.7067 21.8 22.9467 21.8 23.24V27C21.8 27.2667 21.7067 27.5067 21.52 27.72C21.3333 27.9067 21.0933 28 20.8 28H1.8Z" fill="#FF4815"/>
<path d="M24.6869 28C24.5069 28 24.3469 27.94 24.2069 27.82C24.0869 27.68 24.0269 27.51 24.0269 27.31C24.0269 27.15 24.0769 27 24.1769 26.86L29.1869 19.99L24.6269 13.54C24.5069 13.38 24.4469 13.22 24.4469 13.06C24.4469 12.88 24.5169 12.73 24.6569 12.61C24.7969 12.47 24.9569 12.4 25.1369 12.4H28.7969C29.1569 12.4 29.4469 12.57 29.6669 12.91L32.4569 16.75L35.2169 12.94C35.3369 12.78 35.4569 12.65 35.5769 12.55C35.6969 12.45 35.8769 12.4 36.1169 12.4H39.6269C39.8069 12.4 39.9569 12.47 40.0769 12.61C40.2169 12.73 40.2869 12.88 40.2869 13.06C40.2869 13.26 40.2369 13.42 40.1369 13.54L35.4569 19.99L40.5569 26.86C40.6569 27 40.7069 27.15 40.7069 27.31C40.7069 27.51 40.6369 27.68 40.4969 27.82C40.3769 27.94 40.2269 28 40.0469 28H36.2069C35.8669 28 35.5869 27.84 35.3669 27.52L32.3369 23.41L29.2769 27.52C29.1569 27.68 29.0369 27.8 28.9169 27.88C28.7969 27.96 28.6369 28 28.4369 28H24.6869ZM43.7036 33.7C43.5036 33.7 43.3236 33.63 43.1636 33.49C43.0236 33.35 42.9536 33.17 42.9536 32.95V13.15C42.9536 12.93 43.0236 12.75 43.1636 12.61C43.3236 12.47 43.5036 12.4 43.7036 12.4H47.0936C47.3136 12.4 47.4936 12.47 47.6336 12.61C47.7736 12.75 47.8436 12.93 47.8436 13.15V14.23C48.9236 12.81 50.4736 12.1 52.4936 12.1C54.4536 12.1 55.9836 12.71 57.0836 13.93C58.1836 15.15 58.7836 16.87 58.8836 19.09C58.9036 19.35 58.9136 19.72 58.9136 20.2C58.9136 20.68 58.9036 21.05 58.8836 21.31C58.8036 23.47 58.2036 25.18 57.0836 26.44C55.9636 27.68 54.4336 28.3 52.4936 28.3C50.5336 28.3 49.0736 27.63 48.1136 26.29V32.95C48.1136 33.17 48.0436 33.35 47.9036 33.49C47.7636 33.63 47.5836 33.7 47.3636 33.7H43.7036ZM50.8736 24.28C51.8136 24.28 52.4836 24 52.8836 23.44C53.3036 22.88 53.5436 22.11 53.6036 21.13C53.6436 20.73 53.6636 20.42 53.6636 20.2C53.6636 19.98 53.6436 19.67 53.6036 19.27C53.5436 18.29 53.3036 17.52 52.8836 16.96C52.4836 16.4 51.8136 16.12 50.8736 16.12C49.9536 16.12 49.2736 16.41 48.8336 16.99C48.4136 17.55 48.1736 18.28 48.1136 19.18L48.0836 20.29L48.1136 21.43C48.1536 22.25 48.4036 22.93 48.8636 23.47C49.3236 24.01 49.9936 24.28 50.8736 24.28ZM69.0794 28.3C66.6794 28.3 64.7894 27.65 63.4094 26.35C62.0294 25.05 61.3094 23.16 61.2494 20.68V19.63C61.3294 17.27 62.0594 15.43 63.4394 14.11C64.8394 12.77 66.7094 12.1 69.0494 12.1C70.7494 12.1 72.1794 12.45 73.3394 13.15C74.5194 13.83 75.3994 14.77 75.9794 15.97C76.5794 17.17 76.8794 18.55 76.8794 20.11V20.83C76.8794 21.03 76.8094 21.21 76.6694 21.37C76.5294 21.51 76.3494 21.58 76.1294 21.58H66.5294V21.79C66.5694 22.73 66.7994 23.49 67.2194 24.07C67.6394 24.65 68.2494 24.94 69.0494 24.94C69.5494 24.94 69.9594 24.84 70.2794 24.64C70.5994 24.42 70.8894 24.16 71.1494 23.86C71.3294 23.64 71.4694 23.51 71.5694 23.47C71.6894 23.41 71.8694 23.38 72.1094 23.38H75.8294C76.0094 23.38 76.1594 23.44 76.2794 23.56C76.4194 23.66 76.4894 23.8 76.4894 23.98C76.4894 24.5 76.1894 25.1 75.5894 25.78C75.0094 26.46 74.1594 27.05 73.0394 27.55C71.9194 28.05 70.5994 28.3 69.0794 28.3ZM71.5994 18.61V18.55C71.5994 17.57 71.3694 16.8 70.9094 16.24C70.4694 15.66 69.8494 15.37 69.0494 15.37C68.2694 15.37 67.6494 15.66 67.1894 16.24C66.7494 16.8 66.5294 17.57 66.5294 18.55V18.61H71.5994ZM80.4419 28C80.2219 28 80.0419 27.93 79.9019 27.79C79.7619 27.65 79.6919 27.47 79.6919 27.25V13.15C79.6919 12.93 79.7619 12.75 79.9019 12.61C80.0419 12.47 80.2219 12.4 80.4419 12.4H83.8919C84.1119 12.4 84.2919 12.48 84.4319 12.64C84.5919 12.78 84.6719 12.95 84.6719 13.15V14.35C85.7719 13.05 87.2519 12.4 89.1119 12.4H90.4319C90.6519 12.4 90.8319 12.47 90.9719 12.61C91.1119 12.75 91.1819 12.93 91.1819 13.15V16.24C91.1819 16.44 91.1119 16.62 90.9719 16.78C90.8319 16.92 90.6519 16.99 90.4319 16.99H87.5219C86.7019 16.99 86.0619 17.22 85.6019 17.68C85.1619 18.12 84.9419 18.75 84.9419 19.57V27.25C84.9419 27.47 84.8619 27.65 84.7019 27.79C84.5619 27.93 84.3819 28 84.1619 28H80.4419ZM101.295 28C97.1549 28 95.0849 26.03 95.0849 22.09V16.33H92.7449C92.5249 16.33 92.3349 16.26 92.1749 16.12C92.0349 15.98 91.9649 15.8 91.9649 15.58V13.15C91.9649 12.93 92.0349 12.75 92.1749 12.61C92.3349 12.47 92.5249 12.4 92.7449 12.4H95.0849V7.45C95.0849 7.23 95.1549 7.05 95.2949 6.91C95.4549 6.77 95.6349 6.7 95.8349 6.7H99.3149C99.5349 6.7 99.7149 6.77 99.8549 6.91C99.9949 7.05 100.065 7.23 100.065 7.45V12.4H103.815C104.035 12.4 104.215 12.47 104.355 12.61C104.515 12.75 104.595 12.93 104.595 13.15V15.58C104.595 15.8 104.515 15.98 104.355 16.12C104.215 16.26 104.035 16.33 103.815 16.33H100.065V21.67C100.065 23.15 100.635 23.89 101.775 23.89H104.085C104.305 23.89 104.485 23.96 104.625 24.1C104.765 24.24 104.835 24.42 104.835 24.64V27.25C104.835 27.45 104.765 27.63 104.625 27.79C104.485 27.93 104.305 28 104.085 28H101.295ZM108.039 10.15C107.819 10.15 107.639 10.08 107.499 9.94C107.359 9.8 107.289 9.62 107.289 9.4V6.7C107.289 6.48 107.359 6.3 107.499 6.16C107.639 6.02 107.819 5.95 108.039 5.95H111.639C111.859 5.95 112.039 6.02 112.179 6.16C112.319 6.3 112.389 6.48 112.389 6.7V9.4C112.389 9.62 112.319 9.8 112.179 9.94C112.039 10.08 111.859 10.15 111.639 10.15H108.039ZM108.069 28C107.849 28 107.669 27.93 107.529 27.79C107.389 27.65 107.319 27.47 107.319 27.25V13.15C107.319 12.93 107.389 12.75 107.529 12.61C107.669 12.47 107.849 12.4 108.069 12.4H111.609C111.829 12.4 112.009 12.47 112.149 12.61C112.289 12.75 112.359 12.93 112.359 13.15V27.25C112.359 27.45 112.289 27.63 112.149 27.79C112.009 27.93 111.829 28 111.609 28H108.069ZM118.423 28C118.223 28 118.043 27.93 117.883 27.79C117.743 27.63 117.673 27.45 117.673 27.25V16.33H115.393C115.173 16.33 114.993 16.26 114.853 16.12C114.713 15.98 114.643 15.8 114.643 15.58V13.15C114.643 12.93 114.713 12.75 114.853 12.61C114.993 12.47 115.173 12.4 115.393 12.4H117.673V11.44C117.673 9.46 118.233 8.03 119.353 7.15C120.493 6.25 122.123 5.8 124.243 5.8H126.583C126.803 5.8 126.983 5.87 127.123 6.01C127.263 6.15 127.333 6.33 127.333 6.55V8.98C127.333 9.18 127.263 9.36 127.123 9.52C126.983 9.66 126.803 9.73 126.583 9.73H124.483C123.823 9.73 123.353 9.89 123.073 10.21C122.793 10.51 122.653 10.97 122.653 11.59V12.4H126.283C126.503 12.4 126.683 12.47 126.823 12.61C126.963 12.75 127.033 12.93 127.033 13.15V15.58C127.033 15.78 126.963 15.96 126.823 16.12C126.683 16.26 126.503 16.33 126.283 16.33H122.653V27.25C122.653 27.45 122.583 27.63 122.443 27.79C122.303 27.93 122.123 28 121.903 28H118.423ZM132.114 33.7C131.934 33.7 131.784 33.64 131.664 33.52C131.544 33.4 131.484 33.25 131.484 33.07C131.484 32.93 131.514 32.8 131.574 32.68L133.914 27.04L128.154 13.42C128.094 13.26 128.064 13.14 128.064 13.06C128.104 12.88 128.184 12.73 128.304 12.61C128.424 12.47 128.574 12.4 128.754 12.4H132.174C132.594 12.4 132.884 12.61 133.044 13.03L136.464 21.76L139.974 13.03C140.174 12.61 140.474 12.4 140.874 12.4H144.234C144.414 12.4 144.564 12.47 144.684 12.61C144.824 12.73 144.894 12.87 144.894 13.03C144.894 13.11 144.864 13.24 144.804 13.42L136.314 33.07C136.154 33.49 135.854 33.7 135.414 33.7H132.114Z" fill="white"/>
</svg>
